<svg xmlns="http://www.w3.org/2000/svg" viewBox="0 0 64 64" width="64" height="64">
  <defs>
    <linearGradient id="bg" x1="0%" y1="0%" x2="100%" y2="100%">
      <stop offset="0%" style="stop-color:#1e3a8a;stop-opacity:1" />
      <stop offset="100%" style="stop-color:#1e293b;stop-opacity:1" />
    </linearGradient>
    <linearGradient id="shield" x1="0%" y1="0%" x2="100%" y2="100%">
      <stop offset="0%" style="stop-color:#3b82f6;stop-opacity:1" />
      <stop offset="100%" style="stop-color:#1d4ed8;stop-opacity:1" />
    </linearGradient>
  </defs>
  
  <!-- Background circle -->
  <circle cx="32" cy="32" r="30" fill="url(#bg)" stroke="#334155" stroke-width="2"/>
  
  <!-- Shield shape -->
  <path d="M32 8 L48 16 L48 32 C48 40, 42 48, 32 56 C22 48, 16 40, 16 32 L16 16 Z" 
        fill="url(#shield)" 
        stroke="#1e40af" 
        stroke-width="1.5"/>
  
  <!-- Robot/AI icon in center -->
  <circle cx="32" cy="28" r="6" fill="#ffffff" stroke="#1e40af" stroke-width="1"/>
  <circle cx="30" cy="26" r="1.5" fill="#1e40af"/>
  <circle cx="34" cy="26" r="1.5" fill="#1e40af"/>
  <path d="M28 30 Q32 33 36 30" stroke="#1e40af" stroke-width="1.5" fill="none"/>
  
  <!-- Guardrail lines -->
  <line x1="20" y1="20" x2="24" y2="24" stroke="#10b981" stroke-width="2" stroke-linecap="round"/>
  <line x1="44" y1="20" x2="40" y2="24" stroke="#10b981" stroke-width="2" stroke-linecap="round"/>
  <line x1="20" y1="44" x2="24" y2="40" stroke="#10b981" stroke-width="2" stroke-linecap="round"/>
  <line x1="44" y1="44" x2="40" y2="40" stroke="#10b981" stroke-width="2" stroke-linecap="round"/>
</svg>
